<?xml version="1.0" standalone="no"?>
<!DOCTYPE svg PUBLIC "-//W3C//DTD SVG 20010904//EN"
 "http://www.w3.org/TR/2001/REC-SVG-20010904/DTD/svg10.dtd">
<svg version="1.0" xmlns="http://www.w3.org/2000/svg"
 width="128.000000pt" height="59.000000pt" viewBox="0 0 128.000000 59.000000"
 preserveAspectRatio="xMidYMid meet">
<metadata>
Created by potrace 1.10, written by Peter Selinger 2001-2011
</metadata>
<g transform="translate(0.000000,59.000000) scale(0.050000,-0.050000)"
fill="#ffffff" stroke="none">
<path d="M2032 1108 c-8 -20 6 -28 45 -28 37 0 56 -10 56 -30 0 -16 -8 -30
-18 -30 -9 0 -12 -9 -5 -20 7 -11 3 -20 -8 -20 -11 0 -25 8 -31 19 -17 27
-215 20 -251 -9 -56 -45 -96 -49 -105 -11 -6 22 -37 41 -83 49 -41 8 -79 27
-85 43 -6 16 -20 29 -30 29 -11 0 -13 -10 -6 -22 10 -16 3 -16 -27 0 -58 31
-144 28 -144 -6 0 -15 -12 -37 -26 -49 -22 -18 -26 -9 -21 42 3 36 0 47 -6 25
-7 -22 -27 -53 -46 -70 -19 -16 -41 -55 -48 -85 -13 -53 -53 -78 -53 -33 0 12
-13 17 -30 11 -33 -13 -40 8 -12 38 10 10 13 47 8 82 -17 109 -206 102 -206
-8 0 -18 -12 -25 -30 -18 -16 6 -28 5 -26 -3 2 -8 -3 -34 -11 -59 -20 -58 -52
-39 -56 31 -2 47 -4 45 -17 -16 l-15 -70 -2 65 c-3 70 -33 88 -50 30 -6 -20
-9 -14 -7 15 3 32 -7 51 -26 52 -16 1 -43 7 -60 13 -106 41 -140 37 -140 -16
0 -44 -7 -50 -43 -38 -30 9 -38 6 -27 -11 11 -17 3 -20 -27 -11 -35 11 -40 7
-30 -23 7 -20 6 -29 -3 -21 -23 20 -112 -65 -96 -91 8 -13 0 -16 -20 -8 -27
10 -31 2 -21 -47 8 -37 4 -59 -10 -59 -12 0 -17 14 -10 30 8 22 2 27 -21 18
-23 -9 -29 -29 -21 -73 8 -48 4 -57 -20 -48 -26 10 -30 -17 -28 -179 2 -183 4
-191 51 -209 26 -11 43 -28 36 -39 -7 -12 -6 -19 4 -17 9 2 41 -7 72 -20 97
-40 223 0 159 50 -31 24 -29 25 15 9 38 -13 70 -6 134 29 l83 47 14 -62 c9
-40 19 -53 29 -36 12 19 18 19 26 -3 7 -17 11 -18 12 -3 1 13 -7 29 -18 36
-11 7 -20 22 -20 34 0 13 11 12 30 -4 17 -14 30 -37 30 -52 0 -38 53 -36 67 2
7 16 28 30 48 30 52 0 85 39 85 102 0 29 14 59 30 65 17 7 30 30 30 52 0 23 7
41 16 41 22 0 64 -121 64 -184 0 -52 43 -106 67 -82 7 7 13 -3 13 -22 0 -27
11 -22 53 22 l53 56 -14 -60 c-10 -44 -8 -52 7 -30 11 17 21 22 21 13 0 -10
13 -7 29 6 16 14 40 18 54 9 17 -11 13 -19 -14 -30 -36 -14 -36 -15 4 -17 24
0 48 10 54 24 8 20 10 20 11 0 3 -33 62 -32 62 1 0 14 18 60 39 102 l39 77 13
-53 c8 -29 9 -75 4 -102 -5 -28 -1 -44 10 -37 12 7 14 61 6 135 -11 94 -8 117
10 98 13 -12 24 -48 24 -80 -1 -31 13 -71 29 -90 16 -18 24 -43 17 -55 -9 -13
13 -21 58 -21 49 0 78 12 96 40 13 22 37 40 52 40 16 0 23 12 16 30 -7 16 -3
30 8 30 13 0 11 17 -4 45 -21 41 -20 42 10 18 22 -19 33 -20 33 -5 0 32 85
211 104 219 9 3 12 13 7 22 -13 20 158 86 247 96 77 8 163 48 201 93 14 18 34
27 43 21 28 -17 21 35 -12 98 -26 51 -26 56 0 46 17 -7 30 -4 30 5 0 27 -53
41 -104 30 -116 -27 -216 -32 -216 -12 0 12 29 25 65 28 l65 7 -80 23 c-141
39 -246 45 -258 14z m-600 -98 c3 -20 -6 -60 -21 -88 -14 -29 -21 -64 -16 -78
5 -14 -15 -57 -44 -95 -62 -81 -137 -283 -124 -334 6 -21 1 -30 -12 -22 -13 8
-17 -6 -11 -41 11 -56 -15 -89 -46 -58 -10 10 2 90 31 196 60 216 69 206 -144
159 l-175 -39 -24 -80 c-13 -44 -34 -119 -46 -166 -24 -94 -60 -96 -60 -3 0
49 134 425 204 572 11 24 15 52 8 63 -7 11 3 18 22 15 53 -7 53 -42 -2 -159
-77 -162 -72 -179 43 -163 203 29 365 180 365 340 0 45 45 30 52 -19z m-796
-61 c24 -17 44 -49 44 -70 0 -35 -8 -41 -55 -38 -8 0 -12 18 -9 40 25 156
-244 -65 -346 -284 -126 -271 24 -306 285 -66 105 97 94 107 -54 51 -131 -49
-192 -7 -64 44 70 29 302 94 331 94 63 0 -120 -202 -315 -348 -228 -171 -368
-23 -238 253 119 255 310 402 421 324z m987 -57 c-23 -29 -187 -466 -202 -538
-14 -68 -52 -64 -48 6 6 108 211 602 240 577 17 -13 21 -31 10 -45z m837 38
c0 -18 -18 -30 -45 -30 -25 0 -123 -14 -219 -32 -222 -41 -249 -67 -360 -352
-48 -121 -96 -217 -106 -213 -37 13 -10 119 78 300 l88 182 -73 -13 c-216 -37
-249 -39 -239 -10 24 71 876 235 876 168z"/>
</g>
</svg>
